{
	"asset":{
		"generator":"Khronos glTF Blender I/O v4.4.56",
		"version":"2.0"
	},
	"scene":0,
	"scenes":[
		{
			"name":"Scene",
			"nodes":[
				7
			]
		}
	],
	"nodes":[
		{
			"name":"bone_caseRight",
			"rotation":[
				-0.7071069478988647,
				1.355248135936904e-09,
				-1.054149407764271e-07,
				0.7071065902709961
			],
			"scale":[
				1,
				0.9999999403953552,
				0.9999998211860657
			],
			"translation":[
				-0.09098809957504272,
				-0.6080854535102844,
				-0.553136944770813
			]
		},
		{
			"name":"bone_caseLeft",
			"rotation":[
				-0.7071069478988647,
				1.355248135936904e-09,
				-1.054149407764271e-07,
				0.7071065902709961
			],
			"scale":[
				1,
				0.9999999403953552,
				0.9999998211860657
			],
			"translation":[
				0.0940895676612854,
				-0.608085572719574,
				-0.553136944770813
			]
		},
		{
			"children":[
				0,
				1
			],
			"name":"barrel_bone",
			"rotation":[
				0.09431522339582443,
				-5.933893589826766e-07,
				7.04574745213904e-08,
				0.9955424070358276
			],
			"scale":[
				1,
				0.9999998807907104,
				0.9999997019767761
			],
			"translation":[
				-3.3334285376440675e-07,
				0.7297239303588867,
				0.17569389939308167
			]
		},
		{
			"name":"trigger_bone",
			"rotation":[
				0.5278345942497253,
				-1.0124973215397404e-07,
				6.460057875301572e-07,
				0.8493471741676331
			],
			"scale":[
				1,
				0.9999998807907104,
				1
			],
			"translation":[
				-2.618769485707162e-07,
				0.1894770860671997,
				0.1224837526679039
			]
		},
		{
			"children":[
				2,
				3
			],
			"name":"root",
			"rotation":[
				-4.2795093690983776e-07,
				-0.7706456780433655,
				0.6372638940811157,
				5.175227215659106e-07
			],
			"scale":[
				1,
				1.0000001192092896,
				1
			],
			"translation":[
				0.6401500701904297,
				-0.20034551620483398,
				-0.07752978801727295
			]
		},
		{
			"name":"boomBone",
			"rotation":[
				0,
				-1,
				0,
				1.947071694985425e-07
			],
			"translation":[
				0.6401500701904297,
				-0.3661832809448242,
				-2.821300745010376
			]
		},
		{
			"mesh":0,
			"name":"shotgunModel",
			"skin":0
		},
		{
			"children":[
				6,
				4,
				5
			],
			"name":"shotgunRig",
			"scale":[
				0.0996515154838562,
				0.0996515154838562,
				0.0996515154838562
			],
			"translation":[
				0,
				0.5600000023841858,
				-0.10000002384185791
			]
		}
	],
	"animations":[
		{
			"channels":[
				{
					"sampler":0,
					"target":{
						"node":4,
						"path":"translation"
					}
				},
				{
					"sampler":1,
					"target":{
						"node":4,
						"path":"rotation"
					}
				},
				{
					"sampler":2,
					"target":{
						"node":4,
						"path":"scale"
					}
				},
				{
					"sampler":3,
					"target":{
						"node":2,
						"path":"translation"
					}
				},
				{
					"sampler":4,
					"target":{
						"node":2,
						"path":"rotation"
					}
				},
				{
					"sampler":5,
					"target":{
						"node":2,
						"path":"scale"
					}
				},
				{
					"sampler":6,
					"target":{
						"node":0,
						"path":"translation"
					}
				},
				{
					"sampler":7,
					"target":{
						"node":0,
						"path":"rotation"
					}
				},
				{
					"sampler":8,
					"target":{
						"node":0,
						"path":"scale"
					}
				},
				{
					"sampler":9,
					"target":{
						"node":1,
						"path":"translation"
					}
				},
				{
					"sampler":10,
					"target":{
						"node":1,
						"path":"rotation"
					}
				},
				{
					"sampler":11,
					"target":{
						"node":1,
						"path":"scale"
					}
				},
				{
					"sampler":12,
					"target":{
						"node":3,
						"path":"translation"
					}
				},
				{
					"sampler":13,
					"target":{
						"node":3,
						"path":"rotation"
					}
				},
				{
					"sampler":14,
					"target":{
						"node":3,
						"path":"scale"
					}
				},
				{
					"sampler":15,
					"target":{
						"node":5,
						"path":"translation"
					}
				},
				{
					"sampler":16,
					"target":{
						"node":5,
						"path":"rotation"
					}
				},
				{
					"sampler":17,
					"target":{
						"node":5,
						"path":"scale"
					}
				}
			],
			"name":"ShotgunSway",
			"samplers":[
				{
					"input":7,
					"interpolation":"LINEAR",
					"output":8
				},
				{
					"input":7,
					"interpolation":"LINEAR",
					"output":9
				},
				{
					"input":10,
					"interpolation":"STEP",
					"output":11
				},
				{
					"input":10,
					"interpolation":"STEP",
					"output":12
				},
				{
					"input":10,
					"interpolation":"STEP",
					"output":13
				},
				{
					"input":10,
					"interpolation":"STEP",
					"output":14
				},
				{
					"input":10,
					"interpolation":"STEP",
					"output":15
				},
				{
					"input":10,
					"interpolation":"STEP",
					"output":16
				},
				{
					"input":10,
					"interpolation":"STEP",
					"output":17
				},
				{
					"input":10,
					"interpolation":"STEP",
					"output":18
				},
				{
					"input":10,
					"interpolation":"STEP",
					"output":19
				},
				{
					"input":10,
					"interpolation":"STEP",
					"output":20
				},
				{
					"input":10,
					"interpolation":"STEP",
					"output":21
				},
				{
					"input":10,
					"interpolation":"STEP",
					"output":22
				},
				{
					"input":10,
					"interpolation":"STEP",
					"output":23
				},
				{
					"input":10,
					"interpolation":"STEP",
					"output":24
				},
				{
					"input":10,
					"interpolation":"STEP",
					"output":25
				},
				{
					"input":10,
					"interpolation":"STEP",
					"output":26
				}
			]
		},
		{
			"channels":[
				{
					"sampler":0,
					"target":{
						"node":4,
						"path":"translation"
					}
				},
				{
					"sampler":1,
					"target":{
						"node":4,
						"path":"rotation"
					}
				},
				{
					"sampler":2,
					"target":{
						"node":4,
						"path":"scale"
					}
				},
				{
					"sampler":3,
					"target":{
						"node":2,
						"path":"translation"
					}
				},
				{
					"sampler":4,
					"target":{
						"node":2,
						"path":"rotation"
					}
				},
				{
					"sampler":5,
					"target":{
						"node":2,
						"path":"scale"
					}
				},
				{
					"sampler":6,
					"target":{
						"node":0,
						"path":"translation"
					}
				},
				{
					"sampler":7,
					"target":{
						"node":0,
						"path":"rotation"
					}
				},
				{
					"sampler":8,
					"target":{
						"node":0,
						"path":"scale"
					}
				},
				{
					"sampler":9,
					"target":{
						"node":1,
						"path":"translation"
					}
				},
				{
					"sampler":10,
					"target":{
						"node":1,
						"path":"rotation"
					}
				},
				{
					"sampler":11,
					"target":{
						"node":1,
						"path":"scale"
					}
				},
				{
					"sampler":12,
					"target":{
						"node":3,
						"path":"translation"
					}
				},
				{
					"sampler":13,
					"target":{
						"node":3,
						"path":"rotation"
					}
				},
				{
					"sampler":14,
					"target":{
						"node":3,
						"path":"scale"
					}
				},
				{
					"sampler":15,
					"target":{
						"node":5,
						"path":"translation"
					}
				},
				{
					"sampler":16,
					"target":{
						"node":5,
						"path":"rotation"
					}
				},
				{
					"sampler":17,
					"target":{
						"node":5,
						"path":"scale"
					}
				}
			],
			"name":"ShotgunSwitch",
			"samplers":[
				{
					"input":27,
					"interpolation":"LINEAR",
					"output":28
				},
				{
					"input":27,
					"interpolation":"LINEAR",
					"output":29
				},
				{
					"input":30,
					"interpolation":"STEP",
					"output":31
				},
				{
					"input":30,
					"interpolation":"STEP",
					"output":32
				},
				{
					"input":30,
					"interpolation":"STEP",
					"output":33
				},
				{
					"input":30,
					"interpolation":"STEP",
					"output":34
				},
				{
					"input":30,
					"interpolation":"STEP",
					"output":35
				},
				{
					"input":30,
					"interpolation":"STEP",
					"output":36
				},
				{
					"input":30,
					"interpolation":"STEP",
					"output":37
				},
				{
					"input":30,
					"interpolation":"STEP",
					"output":38
				},
				{
					"input":30,
					"interpolation":"STEP",
					"output":39
				},
				{
					"input":30,
					"interpolation":"STEP",
					"output":40
				},
				{
					"input":30,
					"interpolation":"STEP",
					"output":41
				},
				{
					"input":30,
					"interpolation":"STEP",
					"output":42
				},
				{
					"input":30,
					"interpolation":"STEP",
					"output":43
				},
				{
					"input":30,
					"interpolation":"STEP",
					"output":44
				},
				{
					"input":30,
					"interpolation":"STEP",
					"output":45
				},
				{
					"input":30,
					"interpolation":"STEP",
					"output":46
				}
			]
		},
		{
			"channels":[
				{
					"sampler":0,
					"target":{
						"node":4,
						"path":"translation"
					}
				},
				{
					"sampler":1,
					"target":{
						"node":4,
						"path":"rotation"
					}
				},
				{
					"sampler":2,
					"target":{
						"node":4,
						"path":"scale"
					}
				},
				{
					"sampler":3,
					"target":{
						"node":2,
						"path":"translation"
					}
				},
				{
					"sampler":4,
					"target":{
						"node":2,
						"path":"rotation"
					}
				},
				{
					"sampler":5,
					"target":{
						"node":2,
						"path":"scale"
					}
				},
				{
					"sampler":6,
					"target":{
						"node":0,
						"path":"translation"
					}
				},
				{
					"sampler":7,
					"target":{
						"node":0,
						"path":"rotation"
					}
				},
				{
					"sampler":8,
					"target":{
						"node":0,
						"path":"scale"
					}
				},
				{
					"sampler":9,
					"target":{
						"node":1,
						"path":"translation"
					}
				},
				{
					"sampler":10,
					"target":{
						"node":1,
						"path":"rotation"
					}
				},
				{
					"sampler":11,
					"target":{
						"node":1,
						"path":"scale"
					}
				},
				{
					"sampler":12,
					"target":{
						"node":3,
						"path":"translation"
					}
				},
				{
					"sampler":13,
					"target":{
						"node":3,
						"path":"rotation"
					}
				},
				{
					"sampler":14,
					"target":{
						"node":3,
						"path":"scale"
					}
				},
				{
					"sampler":15,
					"target":{
						"node":5,
						"path":"translation"
					}
				},
				{
					"sampler":16,
					"target":{
						"node":5,
						"path":"rotation"
					}
				},
				{
					"sampler":17,
					"target":{
						"node":5,
						"path":"scale"
					}
				}
			],
			"name":"ShootShotgun",
			"samplers":[
				{
					"input":47,
					"interpolation":"LINEAR",
					"output":48
				},
				{
					"input":47,
					"interpolation":"LINEAR",
					"output":49
				},
				{
					"input":50,
					"interpolation":"STEP",
					"output":51
				},
				{
					"input":50,
					"interpolation":"STEP",
					"output":52
				},
				{
					"input":47,
					"interpolation":"LINEAR",
					"output":53
				},
				{
					"input":50,
					"interpolation":"STEP",
					"output":54
				},
				{
					"input":47,
					"interpolation":"LINEAR",
					"output":55
				},
				{
					"input":47,
					"interpolation":"LINEAR",
					"output":56
				},
				{
					"input":50,
					"interpolation":"STEP",
					"output":57
				},
				{
					"input":47,
					"interpolation":"LINEAR",
					"output":58
				},
				{
					"input":47,
					"interpolation":"LINEAR",
					"output":59
				},
				{
					"input":50,
					"interpolation":"STEP",
					"output":60
				},
				{
					"input":50,
					"interpolation":"STEP",
					"output":61
				},
				{
					"input":47,
					"interpolation":"LINEAR",
					"output":62
				},
				{
					"input":50,
					"interpolation":"STEP",
					"output":63
				},
				{
					"input":47,
					"interpolation":"LINEAR",
					"output":64
				},
				{
					"input":50,
					"interpolation":"STEP",
					"output":65
				},
				{
					"input":47,
					"interpolation":"LINEAR",
					"output":66
				}
			]
		}
	],
	"meshes":[
		{
			"name":"shotgunModel",
			"primitives":[
				{
					"attributes":{
						"POSITION":0,
						"NORMAL":1,
						"TEXCOORD_0":2,
						"JOINTS_0":3,
						"WEIGHTS_0":4
					},
					"indices":5
				}
			]
		}
	],
	"skins":[
		{
			"inverseBindMatrices":6,
			"joints":[
				4,
				2,
				0,
				1,
				3,
				5
			],
			"name":"shotgunRig"
		}
	],
	"accessors":[
		{
			"bufferView":0,
			"componentType":5126,
			"count":699,
			"max":[
				0.08780136704444885,
				0.6105877757072449,
				-0.08770054578781128
			],
			"min":[
				0.03978272154927254,
				0.5122188925743103,
				-0.37963518500328064
			],
			"type":"VEC3"
		},
		{
			"bufferView":1,
			"componentType":5126,
			"count":699,
			"type":"VEC3"
		},
		{
			"bufferView":2,
			"componentType":5126,
			"count":699,
			"type":"VEC2"
		},
		{
			"bufferView":3,
			"componentType":5121,
			"count":699,
			"type":"VEC4"
		},
		{
			"bufferView":4,
			"componentType":5126,
			"count":699,
			"type":"VEC4"
		},
		{
			"bufferView":5,
			"componentType":5123,
			"count":876,
			"type":"SCALAR"
		},
		{
			"bufferView":6,
			"componentType":5126,
			"count":6,
			"type":"MAT4"
		},
		{
			"bufferView":7,
			"componentType":5126,
			"count":30,
			"max":[
				1.25
			],
			"min":[
				0.041666666666666664
			],
			"type":"SCALAR"
		},
		{
			"bufferView":8,
			"componentType":5126,
			"count":30,
			"type":"VEC3"
		},
		{
			"bufferView":9,
			"componentType":5126,
			"count":30,
			"type":"VEC4"
		},
		{
			"bufferView":10,
			"componentType":5126,
			"count":2,
			"max":[
				1.25
			],
			"min":[
				0.041666666666666664
			],
			"type":"SCALAR"
		},
		{
			"bufferView":11,
			"componentType":5126,
			"count":2,
			"type":"VEC3"
		},
		{
			"bufferView":12,
			"componentType":5126,
			"count":2,
			"type":"VEC3"
		},
		{
			"bufferView":13,
			"componentType":5126,
			"count":2,
			"type":"VEC4"
		},
		{
			"bufferView":14,
			"componentType":5126,
			"count":2,
			"type":"VEC3"
		},
		{
			"bufferView":15,
			"componentType":5126,
			"count":2,
			"type":"VEC3"
		},
		{
			"bufferView":16,
			"componentType":5126,
			"count":2,
			"type":"VEC4"
		},
		{
			"bufferView":17,
			"componentType":5126,
			"count":2,
			"type":"VEC3"
		},
		{
			"bufferView":18,
			"componentType":5126,
			"count":2,
			"type":"VEC3"
		},
		{
			"bufferView":19,
			"componentType":5126,
			"count":2,
			"type":"VEC4"
		},
		{
			"bufferView":20,
			"componentType":5126,
			"count":2,
			"type":"VEC3"
		},
		{
			"bufferView":21,
			"componentType":5126,
			"count":2,
			"type":"VEC3"
		},
		{
			"bufferView":22,
			"componentType":5126,
			"count":2,
			"type":"VEC4"
		},
		{
			"bufferView":23,
			"componentType":5126,
			"count":2,
			"type":"VEC3"
		},
		{
			"bufferView":24,
			"componentType":5126,
			"count":2,
			"type":"VEC3"
		},
		{
			"bufferView":25,
			"componentType":5126,
			"count":2,
			"type":"VEC4"
		},
		{
			"bufferView":26,
			"componentType":5126,
			"count":2,
			"type":"VEC3"
		},
		{
			"bufferView":27,
			"componentType":5126,
			"count":6,
			"max":[
				0.25
			],
			"min":[
				0.041666666666666664
			],
			"type":"SCALAR"
		},
		{
			"bufferView":28,
			"componentType":5126,
			"count":6,
			"type":"VEC3"
		},
		{
			"bufferView":29,
			"componentType":5126,
			"count":6,
			"type":"VEC4"
		},
		{
			"bufferView":30,
			"componentType":5126,
			"count":2,
			"max":[
				0.25
			],
			"min":[
				0.041666666666666664
			],
			"type":"SCALAR"
		},
		{
			"bufferView":31,
			"componentType":5126,
			"count":2,
			"type":"VEC3"
		},
		{
			"bufferView":32,
			"componentType":5126,
			"count":2,
			"type":"VEC3"
		},
		{
			"bufferView":33,
			"componentType":5126,
			"count":2,
			"type":"VEC4"
		},
		{
			"bufferView":34,
			"componentType":5126,
			"count":2,
			"type":"VEC3"
		},
		{
			"bufferView":35,
			"componentType":5126,
			"count":2,
			"type":"VEC3"
		},
		{
			"bufferView":36,
			"componentType":5126,
			"count":2,
			"type":"VEC4"
		},
		{
			"bufferView":37,
			"componentType":5126,
			"count":2,
			"type":"VEC3"
		},
		{
			"bufferView":38,
			"componentType":5126,
			"count":2,
			"type":"VEC3"
		},
		{
			"bufferView":39,
			"componentType":5126,
			"count":2,
			"type":"VEC4"
		},
		{
			"bufferView":40,
			"componentType":5126,
			"count":2,
			"type":"VEC3"
		},
		{
			"bufferView":41,
			"componentType":5126,
			"count":2,
			"type":"VEC3"
		},
		{
			"bufferView":42,
			"componentType":5126,
			"count":2,
			"type":"VEC4"
		},
		{
			"bufferView":43,
			"componentType":5126,
			"count":2,
			"type":"VEC3"
		},
		{
			"bufferView":44,
			"componentType":5126,
			"count":2,
			"type":"VEC3"
		},
		{
			"bufferView":45,
			"componentType":5126,
			"count":2,
			"type":"VEC4"
		},
		{
			"bufferView":46,
			"componentType":5126,
			"count":2,
			"type":"VEC3"
		},
		{
			"bufferView":47,
			"componentType":5126,
			"count":20,
			"max":[
				0.8333333333333334
			],
			"min":[
				0.041666666666666664
			],
			"type":"SCALAR"
		},
		{
			"bufferView":48,
			"componentType":5126,
			"count":20,
			"type":"VEC3"
		},
		{
			"bufferView":49,
			"componentType":5126,
			"count":20,
			"type":"VEC4"
		},
		{
			"bufferView":50,
			"componentType":5126,
			"count":2,
			"max":[
				0.8333333333333334
			],
			"min":[
				0.041666666666666664
			],
			"type":"SCALAR"
		},
		{
			"bufferView":51,
			"componentType":5126,
			"count":2,
			"type":"VEC3"
		},
		{
			"bufferView":52,
			"componentType":5126,
			"count":2,
			"type":"VEC3"
		},
		{
			"bufferView":53,
			"componentType":5126,
			"count":20,
			"type":"VEC4"
		},
		{
			"bufferView":54,
			"componentType":5126,
			"count":2,
			"type":"VEC3"
		},
		{
			"bufferView":55,
			"componentType":5126,
			"count":20,
			"type":"VEC3"
		},
		{
			"bufferView":56,
			"componentType":5126,
			"count":20,
			"type":"VEC4"
		},
		{
			"bufferView":57,
			"componentType":5126,
			"count":2,
			"type":"VEC3"
		},
		{
			"bufferView":58,
			"componentType":5126,
			"count":20,
			"type":"VEC3"
		},
		{
			"bufferView":59,
			"componentType":5126,
			"count":20,
			"type":"VEC4"
		},
		{
			"bufferView":60,
			"componentType":5126,
			"count":2,
			"type":"VEC3"
		},
		{
			"bufferView":61,
			"componentType":5126,
			"count":2,
			"type":"VEC3"
		},
		{
			"bufferView":62,
			"componentType":5126,
			"count":20,
			"type":"VEC4"
		},
		{
			"bufferView":63,
			"componentType":5126,
			"count":2,
			"type":"VEC3"
		},
		{
			"bufferView":64,
			"componentType":5126,
			"count":20,
			"type":"VEC3"
		},
		{
			"bufferView":65,
			"componentType":5126,
			"count":2,
			"type":"VEC4"
		},
		{
			"bufferView":66,
			"componentType":5126,
			"count":20,
			"type":"VEC3"
		}
	],
	"bufferViews":[
		{
			"buffer":0,
			"byteLength":8388,
			"byteOffset":0,
			"target":34962
		},
		{
			"buffer":0,
			"byteLength":8388,
			"byteOffset":8388,
			"target":34962
		},
		{
			"buffer":0,
			"byteLength":5592,
			"byteOffset":16776,
			"target":34962
		},
		{
			"buffer":0,
			"byteLength":2796,
			"byteOffset":22368,
			"target":34962
		},
		{
			"buffer":0,
			"byteLength":11184,
			"byteOffset":25164,
			"target":34962
		},
		{
			"buffer":0,
			"byteLength":1752,
			"byteOffset":36348,
			"target":34963
		},
		{
			"buffer":0,
			"byteLength":384,
			"byteOffset":38100
		},
		{
			"buffer":0,
			"byteLength":120,
			"byteOffset":38484
		},
		{
			"buffer":0,
			"byteLength":360,
			"byteOffset":38604
		},
		{
			"buffer":0,
			"byteLength":480,
			"byteOffset":38964
		},
		{
			"buffer":0,
			"byteLength":8,
			"byteOffset":39444
		},
		{
			"buffer":0,
			"byteLength":24,
			"byteOffset":39452
		},
		{
			"buffer":0,
			"byteLength":24,
			"byteOffset":39476
		},
		{
			"buffer":0,
			"byteLength":32,
			"byteOffset":39500
		},
		{
			"buffer":0,
			"byteLength":24,
			"byteOffset":39532
		},
		{
			"buffer":0,
			"byteLength":24,
			"byteOffset":39556
		},
		{
			"buffer":0,
			"byteLength":32,
			"byteOffset":39580
		},
		{
			"buffer":0,
			"byteLength":24,
			"byteOffset":39612
		},
		{
			"buffer":0,
			"byteLength":24,
			"byteOffset":39636
		},
		{
			"buffer":0,
			"byteLength":32,
			"byteOffset":39660
		},
		{
			"buffer":0,
			"byteLength":24,
			"byteOffset":39692
		},
		{
			"buffer":0,
			"byteLength":24,
			"byteOffset":39716
		},
		{
			"buffer":0,
			"byteLength":32,
			"byteOffset":39740
		},
		{
			"buffer":0,
			"byteLength":24,
			"byteOffset":39772
		},
		{
			"buffer":0,
			"byteLength":24,
			"byteOffset":39796
		},
		{
			"buffer":0,
			"byteLength":32,
			"byteOffset":39820
		},
		{
			"buffer":0,
			"byteLength":24,
			"byteOffset":39852
		},
		{
			"buffer":0,
			"byteLength":24,
			"byteOffset":39876
		},
		{
			"buffer":0,
			"byteLength":72,
			"byteOffset":39900
		},
		{
			"buffer":0,
			"byteLength":96,
			"byteOffset":39972
		},
		{
			"buffer":0,
			"byteLength":8,
			"byteOffset":40068
		},
		{
			"buffer":0,
			"byteLength":24,
			"byteOffset":40076
		},
		{
			"buffer":0,
			"byteLength":24,
			"byteOffset":40100
		},
		{
			"buffer":0,
			"byteLength":32,
			"byteOffset":40124
		},
		{
			"buffer":0,
			"byteLength":24,
			"byteOffset":40156
		},
		{
			"buffer":0,
			"byteLength":24,
			"byteOffset":40180
		},
		{
			"buffer":0,
			"byteLength":32,
			"byteOffset":40204
		},
		{
			"buffer":0,
			"byteLength":24,
			"byteOffset":40236
		},
		{
			"buffer":0,
			"byteLength":24,
			"byteOffset":40260
		},
		{
			"buffer":0,
			"byteLength":32,
			"byteOffset":40284
		},
		{
			"buffer":0,
			"byteLength":24,
			"byteOffset":40316
		},
		{
			"buffer":0,
			"byteLength":24,
			"byteOffset":40340
		},
		{
			"buffer":0,
			"byteLength":32,
			"byteOffset":40364
		},
		{
			"buffer":0,
			"byteLength":24,
			"byteOffset":40396
		},
		{
			"buffer":0,
			"byteLength":24,
			"byteOffset":40420
		},
		{
			"buffer":0,
			"byteLength":32,
			"byteOffset":40444
		},
		{
			"buffer":0,
			"byteLength":24,
			"byteOffset":40476
		},
		{
			"buffer":0,
			"byteLength":80,
			"byteOffset":40500
		},
		{
			"buffer":0,
			"byteLength":240,
			"byteOffset":40580
		},
		{
			"buffer":0,
			"byteLength":320,
			"byteOffset":40820
		},
		{
			"buffer":0,
			"byteLength":8,
			"byteOffset":41140
		},
		{
			"buffer":0,
			"byteLength":24,
			"byteOffset":41148
		},
		{
			"buffer":0,
			"byteLength":24,
			"byteOffset":41172
		},
		{
			"buffer":0,
			"byteLength":320,
			"byteOffset":41196
		},
		{
			"buffer":0,
			"byteLength":24,
			"byteOffset":41516
		},
		{
			"buffer":0,
			"byteLength":240,
			"byteOffset":41540
		},
		{
			"buffer":0,
			"byteLength":320,
			"byteOffset":41780
		},
		{
			"buffer":0,
			"byteLength":24,
			"byteOffset":42100
		},
		{
			"buffer":0,
			"byteLength":240,
			"byteOffset":42124
		},
		{
			"buffer":0,
			"byteLength":320,
			"byteOffset":42364
		},
		{
			"buffer":0,
			"byteLength":24,
			"byteOffset":42684
		},
		{
			"buffer":0,
			"byteLength":24,
			"byteOffset":42708
		},
		{
			"buffer":0,
			"byteLength":320,
			"byteOffset":42732
		},
		{
			"buffer":0,
			"byteLength":24,
			"byteOffset":43052
		},
		{
			"buffer":0,
			"byteLength":240,
			"byteOffset":43076
		},
		{
			"buffer":0,
			"byteLength":32,
			"byteOffset":43316
		},
		{
			"buffer":0,
			"byteLength":240,
			"byteOffset":43348
		}
	],
	"buffers":[
		{
			"byteLength":43588,
			"uri":"shotgun.bin"
		}
	]
}
